<?xml version="1.0" encoding="UTF-8" standalone="no"?>
<!-- Created with Inkscape (http://www.inkscape.org/) -->

<svg
   xmlns:dc="http://purl.org/dc/elements/1.1/"
   xmlns:cc="http://creativecommons.org/ns#"
   xmlns:rdf="http://www.w3.org/1999/02/22-rdf-syntax-ns#"
   xmlns:svg="http://www.w3.org/2000/svg"
   xmlns="http://www.w3.org/2000/svg"
   xmlns:sodipodi="http://sodipodi.sourceforge.net/DTD/sodipodi-0.dtd"
   xmlns:inkscape="http://www.inkscape.org/namespaces/inkscape"
   version="1.1"
   id="svg2"
   xml:space="preserve"
   width="1056"
   height="816"
   viewBox="0 0 1056 816"
   sodipodi:docname="2_i2i2c2c_20180320_i2i2c2c_layout_nicely.svg"
   inkscape:export-filename="C:\Users\Mark Miller\Desktop\nci_C71890_icd9_diagram.png"
   inkscape:export-xdpi="100"
   inkscape:export-ydpi="100"
   inkscape:version="0.92.0 r15299"><metadata
     id="metadata8"><rdf:RDF><cc:Work
         rdf:about=""><dc:format>image/svg+xml</dc:format><dc:type
           rdf:resource="http://purl.org/dc/dcmitype/StillImage" /><dc:title></dc:title></cc:Work></rdf:RDF></metadata><defs
     id="defs6"><clipPath
       clipPathUnits="userSpaceOnUse"
       id="clipPath20"><path
         d="M 77.04,91.44 H 743.76 V 534.96 H 77.04 Z"
         id="path18"
         inkscape:connector-curvature="0" /></clipPath><clipPath
       clipPathUnits="userSpaceOnUse"
       id="clipPath28"><path
         d="M 18,18 H 774 V 594 H 18 Z"
         id="path26"
         inkscape:connector-curvature="0" /></clipPath><clipPath
       clipPathUnits="userSpaceOnUse"
       id="clipPath36"><path
         d="M 77.04,91.44 H 743.76 V 534.96 H 77.04 Z"
         id="path34"
         inkscape:connector-curvature="0" /></clipPath><clipPath
       clipPathUnits="userSpaceOnUse"
       id="clipPath56"><path
         d="M 18,18 H 774 V 594 H 18 Z"
         id="path54"
         inkscape:connector-curvature="0" /></clipPath></defs><sodipodi:namedview
     pagecolor="#ffffff"
     bordercolor="#666666"
     borderopacity="1"
     objecttolerance="10"
     gridtolerance="10"
     guidetolerance="10"
     inkscape:pageopacity="0"
     inkscape:pageshadow="2"
     inkscape:window-width="1920"
     inkscape:window-height="976"
     id="namedview4"
     showgrid="false"
     inkscape:zoom="1.1568627"
     inkscape:cx="528"
     inkscape:cy="1033.8554"
     inkscape:window-x="1912"
     inkscape:window-y="-8"
     inkscape:window-maximized="1"
     inkscape:current-layer="g10" /><g
     id="g10"
     inkscape:groupmode="layer"
     inkscape:label="2_i2i2c2c_20180320_i2i2c2c_layout_nicely"
     transform="matrix(1.3333333,0,0,-1.3333333,0,816)"><path
       d="M 643.77,112.44 128.06,509.55"
       style="fill:none;stroke:#d95f02;stroke-width:9;stroke-linecap:round;stroke-linejoin:round;stroke-miterlimit:10;stroke-dasharray:none;stroke-opacity:0.30199998"
       id="path38"
       inkscape:connector-curvature="0" /><path
       d="m 156.19,498.88 -1.21,0.15 -1.24,0.17 -1.27,0.21 -1.32,0.23 -1.37,0.28 -1.42,0.31 -1.49,0.37 -1.57,0.43 -1.68,0.52 -1.82,0.62 -2.01,0.77 -2.31,1 -2.91,1.46 -6.47,4.2 -0.09,-0.11 5.72,-5.19 2.15,-2.43 1.57,-1.98 1.25,-1.75 1.07,-1.6 0.92,-1.49 0.82,-1.41 0.74,-1.35 0.67,-1.29 0.61,-1.25 0.57,-1.22 0.52,-1.18 0.49,-1.15 0.45,-1.13 z"
       style="fill:#d95f02;fill-opacity:0.30199998;fill-rule:nonzero;stroke:#d95f02;stroke-width:0.75;stroke-linecap:round;stroke-linejoin:round;stroke-miterlimit:10;stroke-dasharray:none;stroke-opacity:0.30199998"
       id="path40"
       inkscape:connector-curvature="0" /><text
       transform="scale(1,-1)"
       style="font-variant:normal;font-weight:bold;font-size:9px;font-family:Helvetica;-inkscape-font-specification:Helvetica-Bold;writing-mode:lr-tb;fill:#000000;fill-opacity:1;fill-rule:nonzero;stroke:none"
       id="text44"
       x="456.14001"
       y="-240.47"><tspan
         x="456.14001 461.63901 466.64301 472.142 477.64099 480.638 485.642"
         y="-240.47"
         sodipodi:role="line"
         id="tspan42">denotes</tspan></text>
<path
       d="m 636.04,92.07 c 0,18.81 15.39,34.19 34.19,34.19 18.8,0 34.19,-15.38 34.19,-34.19 0,-18.8 -15.39,-34.19 -34.19,-34.19 -18.8,0 -34.19,15.39 -34.19,34.19"
       style="fill:#fbb4ae;fill-opacity:0.50199998;fill-rule:nonzero;stroke:none"
       id="path46"
       inkscape:connector-curvature="0" /><path
       d="m 116.38,513.27 c 0,3.76 3.08,6.84 6.84,6.84 3.76,0 6.84,-3.08 6.84,-6.84 0,-3.76 -3.08,-6.84 -6.84,-6.84 -3.76,0 -6.84,3.08 -6.84,6.84"
       style="fill:#fbb4ae;fill-opacity:0.50199998;fill-rule:nonzero;stroke:none"
       id="path48"
       inkscape:connector-curvature="0" /><text
       transform="scale(1,-1)"
       style="font-style:oblique;font-variant:normal;font-size:9px;font-family:Helvetica;-inkscape-font-specification:Helvetica-Oblique;writing-mode:lr-tb;fill:#000000;fill-opacity:1;fill-rule:nonzero;stroke:none"
       id="text60"
       x="651.21997"
       y="-105.04"><tspan
         x="651.21997 656.224 658.22198 663.22601 668.22998 673.23401 678.23798 682.73798 684.73602"
         y="-105.04"
         sodipodi:role="line"
         id="tspan58">diagnosis</tspan></text>
<text
       transform="scale(1,-1)"
       style="font-style:oblique;font-variant:normal;font-size:9px;font-family:Helvetica;-inkscape-font-specification:Helvetica-Oblique;writing-mode:lr-tb;fill:#000000;fill-opacity:1;fill-rule:nonzero;stroke:none"
       id="text64"
       x="660.46997"
       y="-94.239998"><tspan
         x="660.46997 664.96997 669.974 674.97803"
         y="-94.239998"
         sodipodi:role="line"
         id="tspan62">code</tspan></text>
<text
       transform="scale(1,-1)"
       style="font-style:oblique;font-variant:normal;font-size:9px;font-family:Helvetica;-inkscape-font-specification:Helvetica-Oblique;writing-mode:lr-tb;fill:#000000;fill-opacity:1;fill-rule:nonzero;stroke:none"
       id="text68"
       x="655.34003"
       y="-83.440002"><tspan
         x="655.34003 658.33698 663.341 668.34497 670.34302 674.84302 677.34497 680.612"
         y="-83.440002"
         sodipodi:role="line"
         id="tspan66">registry</tspan></text>
<text
       transform="scale(1,-1)"
       style="font-style:oblique;font-variant:normal;font-size:9px;font-family:Helvetica;-inkscape-font-specification:Helvetica-Oblique;writing-mode:lr-tb;fill:#000000;fill-opacity:1;fill-rule:nonzero;stroke:none"
       id="text72"
       x="654.96997"
       y="-72.639999"><tspan
         x="654.96997 659.974 664.97803 669.98199 674.98602 677.48798 682.492"
         y="-72.639999"
         sodipodi:role="line"
         id="tspan70">denoter</tspan></text>
<text
       transform="scale(1,-1)"
       style="font-style:oblique;font-variant:normal;font-size:9px;font-family:Helvetica;-inkscape-font-specification:Helvetica-Oblique;writing-mode:lr-tb;fill:#000000;fill-opacity:1;fill-rule:nonzero;stroke:none"
       id="text76"
       x="98.339996"
       y="-526.23999"><tspan
         x="98.339996 100.842 105.846 108.348 113.352 116.574 121.578 126.582 129.084 131.082 136.086 141.09 146.09399"
         y="-526.23999"
         sodipodi:role="line"
         id="tspan74">International</tspan></text>
<text
       transform="scale(1,-1)"
       style="font-style:oblique;font-variant:normal;font-size:9px;font-family:Helvetica;-inkscape-font-specification:Helvetica-Oblique;writing-mode:lr-tb;fill:#000000;fill-opacity:1;fill-rule:nonzero;stroke:none"
       id="text80"
       x="96.720001"
       y="-515.44"><tspan
         x="96.720001 103.218 105.216 110.22 114.72 119.22 121.218 123.72 125.718 130.218 135.222 137.724 139.722 144.726"
         y="-515.44"
         sodipodi:role="line"
         id="tspan78">Classification</tspan></text>
<text
       transform="scale(1,-1)"
       style="font-style:oblique;font-variant:normal;font-size:9px;font-family:Helvetica;-inkscape-font-specification:Helvetica-Oblique;writing-mode:lr-tb;fill:#000000;fill-opacity:1;fill-rule:nonzero;stroke:none"
       id="text84"
       x="98.529999"
       y="-504.64001"><tspan
         x="98.529999 103.534 106.036 108.538 115.036 117.034 121.534 126.538 131.54201 136.04201 141.04601 145.411"
         y="-504.64001"
         sodipodi:role="line"
         id="tspan82">of Diseases,</tspan></text>
<text
       transform="scale(1,-1)"
       style="font-style:oblique;font-variant:normal;font-size:9px;font-family:Helvetica;-inkscape-font-specification:Helvetica-Oblique;writing-mode:lr-tb;fill:#000000;fill-opacity:1;fill-rule:nonzero;stroke:none"
       id="text88"
       x="94.349998"
       y="-493.84"><tspan
         x="94.349998 100.848 102.846 107.85 110.352 115.356 117.858 124.356 129.09 133.59 135.588 140.088 142.086 147.09"
         y="-493.84"
         sodipodi:role="line"
         id="tspan86">Ninth Revision</tspan></text>
<text
       transform="scale(1,-1)"
       style="font-variant:normal;font-weight:bold;font-size:12px;font-family:Helvetica;-inkscape-font-specification:Helvetica-Bold;writing-mode:lr-tb;fill:#000000;fill-opacity:1;fill-rule:nonzero;stroke:none"
       id="text92"
       x="77.029999"
       y="-560.16998"
       inkscape:export-filename="C:\Users\Mark Miller\Desktop\nci_C71890_icd9_diagram.png"
       inkscape:export-xdpi="100"
       inkscape:export-ydpi="100"><tspan
         x="77.029999 80.365997 87.697998 91.694 98.365997 103.034 110.366 117.038 121.034 124.37 131.702 139.034 145.70601 149.04201 152.37801 161.04201 164.37801 171.05 177.722 184.394 187.73 191.726 195.062 201.73401 208.40601 212.40199 215.73799 223.06999 230.40199 233.73799 241.06999 245.06599 248.40199 257.06601 260.40201 267.07401 273.746 280.418 287.09 293.76199 300.43402 303.77002 307.10602 315.77002 319.10602 326.43802 330.43402 337.76599 341.10199 349.76599 356.258 362.92999 366.26599 372.93799 376.27399 383.60599 390.93799 394.27399 398.26999 405.60199 409.59799 413.59399 420.92599 424.922 428.258 431.59399 438.92599 445.59799 448.93399 455.60599 462.93799 466.27399 473.60599 480.27798 483.61401 486.95001 494.28201 497.61801 504.95001 508.28601 515.61804 522.71002 529.38202 532.71802 539.39001 550.05804 553.39404 556.73004 563.88202 573.21802 576.55402 579.89001 587.89404 595.89801 603.90204 607.23804 614.57001 621.90204 628.57404 635.24603 641.91803 649.25 653.91803 661.25 667.92206 671.25806 678.41003 687.74603 691.08203 697.75403 706.41803 713.09003 719.76202 726.43402 733.10602 739.77802"
         y="-560.16998"
         sodipodi:role="line"
         id="tspan90">International Classification of Diseases, Ninth Revision (http://ncicb.nci.nih.gov/xml/owl/EVS/Thesaurus.owl#C71890)</tspan></text>
</g></svg>